<svg width="92" height="92" viewBox="0 0 92 92" fill="none" xmlns="http://www.w3.org/2000/svg">
<path fill-rule="evenodd" clip-rule="evenodd" d="M92 0H0V92H92V0ZM50.8033 33.7112C44.3119 36.4871 25.5947 44.3705 25.5947 44.3705C21.1589 46.1471 23.7554 47.8125 23.7554 47.8125C23.7554 47.8125 27.5421 49.145 30.7879 50.1442C34.0336 51.1435 35.7647 50.0332 35.7647 50.0332C35.7647 50.0332 43.3381 44.9257 51.0196 39.485C56.4292 35.7099 55.131 38.8188 53.8326 40.1513C51.0196 43.0381 46.3675 47.5905 42.4725 51.2546C40.7415 52.8092 41.607 54.1415 42.3644 54.8077C44.567 56.7204 49.7547 60.199 52.11 61.7783C52.7626 62.216 53.1978 62.5078 53.2917 62.58C53.8326 63.0243 56.8621 65.0228 58.7013 64.5787C60.5405 64.1346 60.7569 61.5807 60.7569 61.5807C60.7569 61.5807 62.1634 52.476 63.4617 44.1484C63.7022 42.5132 63.9427 40.9123 64.167 39.4195C64.7497 35.5401 65.2228 32.391 65.301 31.2685C65.6256 27.4934 61.7306 29.0478 61.7306 29.0478C61.7306 29.0478 53.2917 32.6009 50.8033 33.7112Z" fill="#34AADF"/>
</svg>
