<svg width="92" height="92" viewBox="0 0 92 92" fill="none" xmlns="http://www.w3.org/2000/svg">
<path fill-rule="evenodd" clip-rule="evenodd" d="M92 0H0V92H92V0ZM70.9936 30.6436C72.844 30.6436 73.2328 31.5372 72.844 32.7534C72.0661 36.0978 64.6113 45.9488 64.6113 45.9488C63.9631 46.9217 63.7038 47.4083 64.6113 48.5027C64.9309 48.9225 65.6129 49.5491 66.3931 50.2661C67.1955 51.0034 68.1018 51.8362 68.8249 52.6377C71.4532 55.4115 73.434 57.7514 73.9858 59.3641C74.49 60.9823 73.6159 61.8022 71.8677 61.8022H65.749C64.1101 61.8022 63.2848 60.9411 61.5016 59.0802C60.7457 58.2915 59.8178 57.3231 58.5828 56.1646C54.9526 52.881 53.3968 52.4553 52.4894 52.4553C51.2577 52.4553 50.8892 52.7826 50.8892 54.4226V59.5699C50.8892 60.9823 50.4081 61.8022 46.5187 61.8022C40.0364 61.8022 32.9126 58.1105 27.8565 51.3C20.2722 41.3274 18.1978 33.7871 18.1978 32.2668C18.1978 31.4156 18.5475 30.6436 20.2957 30.6436H26.4144C27.9782 30.6436 28.5664 31.2856 29.1528 32.875C32.1454 41.0524 37.1911 48.1988 39.2654 48.1988C40.0433 48.1988 40.4 47.8628 40.4 46.0097V37.5573C40.2596 35.1512 39.3636 34.1107 38.7 33.34C38.2902 32.8641 37.969 32.4911 37.969 31.9629C37.969 31.3209 38.5537 30.6436 39.5259 30.6436H49.141C50.4376 30.6436 50.8891 31.294 50.8891 32.7534V44.1246C50.8891 45.3407 51.4522 45.7663 51.841 45.7663C52.6189 45.7663 53.2672 45.3407 54.6933 44.0029C59.1013 39.3815 62.2129 32.2668 62.2129 32.2668C62.6019 31.4156 63.3191 30.6436 64.8749 30.6436H70.9936Z" fill="#2787F5"/>
</svg>
