<?xml version="1.0" encoding="UTF-8"?>
<!DOCTYPE svg PUBLIC "-//W3C//DTD SVG 1.1//EN" "http://www.w3.org/Graphics/SVG/1.1/DTD/svg11.dtd">
<!-- Creator: CorelDRAW 2017 -->
<svg xmlns="http://www.w3.org/2000/svg" xml:space="preserve" width="67.4196mm" height="59.523mm" version="1.1" style="shape-rendering:geometricPrecision; text-rendering:geometricPrecision; image-rendering:optimizeQuality; fill-rule:evenodd; clip-rule:evenodd"
viewBox="0 0 3449.37 3045.36"
 xmlns:xlink="http://www.w3.org/1999/xlink">
 <defs>
  <style type="text/css">
   <![CDATA[
    .fil3 {fill:#C5C6C6}
    .fil4 {fill:#727271}
    .fil0 {fill:#DCC5AC}
    .fil1 {fill:#B5A386}
    .fil2 {fill:#FEFEFE;fill-rule:nonzero}
    .fil5 {fill:url(#id0)}
   ]]>
  </style>
  <linearGradient id="id0" gradientUnits="userSpaceOnUse" x1="2324.66" y1="2004.4" x2="1341.96" y2="1035.74">
   <stop offset="0" style="stop-opacity:1; stop-color:#727271"/>
   <stop offset="1" style="stop-opacity:1; stop-color:#FEFEFE"/>
  </linearGradient>
 </defs>
 <g id="Слой_x0020_1">
  <metadata id="CorelCorpID_0Corel-Layer"/>
  <circle class="fil0" cx="1651.46" cy="1661.28" r="364.37"/>
  <path class="fil1" d="M2545.33 1237.16l50.49 121.28c15.68,43.6 28.02,86.17 39.88,133.27 46.56,184.77 26.3,378.13 -40.62,552.66l97.21 0 0.29 -0.51c1.42,0.11 2.88,0.28 4.36,0.51l94.6 0c14.03,-43.14 24.9,-94.63 33.67,-138.03 5.95,-29.49 25.8,-164.19 16.12,-185.96 -5.78,-5.25 2.21,-1.9 -9.13,-4.29 -16.25,-3.42 -80.59,4.53 -87.78,-3.21 -2.32,-4.38 -10.82,-129.57 -12.74,-148.06 -9.44,-90.9 -37.17,-172.67 -68.72,-255.36 -8.77,-22.97 -42.03,-96.18 -55.02,-108.85 -11.03,2.98 -56.38,28.54 -62.59,36.55z"/>
  <path class="fil1" d="M2192.84 2474.18l1.93 1.53c12.47,9.89 9.48,18.36 20.85,36.09l25.02 35.92c7.02,7.24 0.85,-5.22 6.12,8.4 1.57,4.05 2.01,6.78 2.85,12.97l8.13 1.12c19.85,-3.44 110.11,-74.89 124.22,-88.1l7.95 -7.93 -197.09 0z"/>
  <path class="fil1" d="M2672.45 2480.59c1.71,-2.1 3.42,-4.24 5.14,-6.41l-18.3 0c4.83,3.13 9.28,5.41 13.15,6.41zm-245 -6.41l-18.29 16.87c-35.27,32.3 -116.62,94.41 -156.91,115.54 3.56,16.12 30.27,56.49 40.27,65.54 29.92,-7.09 136.6,-94.84 159.62,-113.78 29.06,-23.91 59.61,-57.04 86.55,-84.17l-111.23 0z"/>
  <path class="fil1" d="M1494.38 2521.32c-9.88,0.62 -8.92,0.89 -14.18,8.19 -7.28,10.11 -11.02,38.22 -11.26,49.72 -6.49,0.97 0.63,-1.9 1.56,1.59l0.35 2.15c-1.18,16.33 -3.11,-5.91 -3.51,9.77l91.25 32.79c-0.21,27.04 -15.8,72.41 -11.87,95.86l177.55 15.36c7.29,26.02 -6.68,79.59 4.78,98.07 17.9,17.58 223.3,-23.16 269.62,-35.49 26.29,-6.99 53.86,-17.51 78.37,-24.56 -0.26,-28.27 -24.64,-70.11 -27.93,-101.12 37.1,-8.21 194.92,-82 208.65,-103.45l-8.13 -1.12c-0.84,-6.2 -1.28,-8.93 -2.85,-12.97 -5.27,-13.62 0.9,-1.16 -6.12,-8.4l-25.02 -35.92c-11.37,-17.72 -8.39,-26.2 -20.85,-36.09l-1.93 -1.53 -139.89 0c-59.23,26.84 -130.44,49.64 -188.26,61.23 -93.18,18.66 -190.59,16.99 -284.71,2.07 -21.52,-3.42 -68.66,-16.63 -85.6,-16.17z"/>
  <path class="fil1" d="M552.44 2141.69c0.62,49.82 111.23,229.54 151.02,284.26l63.97 84.99c-7.41,17.65 -62.03,51.78 -73.09,69.76 11.92,24.84 117.09,123.56 148.45,148.68 28.98,23.21 52.55,43.3 83.12,65.34 15.27,11.02 76.75,55.13 93,58.1l105.96 -173.51 169.94 80.04c39.79,16.01 155.85,56.05 200.77,55.14l10.26 -72.9c-37.46,-20.66 -260.26,-43.75 -487.22,-239.6 -34.7,-29.94 -107.66,-101.45 -132.8,-137.21 -35.74,-50.85 -77.99,-102.45 -108.63,-164.39 -10.57,-21.35 -20.94,-38.2 -31.17,-59.82 -8.81,-18.61 -18.2,-45.52 -28.84,-61.78l-164.75 62.89z"/>
  <path class="fil1" d="M1918.46 580.8c-25.24,-0.43 -63.16,-7.62 -89.97,-10.11 -55.6,-5.15 -273.5,-11.29 -295.53,9.62 -0.01,0 -5.04,-2.9 -2.55,14.58l11.3 58.66c16.03,2.21 56.15,-3.83 74.42,-5.26 27,-2.12 54.5,-3.15 81.96,-3.41 147.19,-1.45 289.4,27.56 419.82,81.45 113.7,46.98 194.42,104.58 282.18,175.85l107.57 103.54c8.68,-3.78 50.25,-38.98 56.57,-47.56 -5.95,-14.57 -83.6,-92.88 -99.33,-105.64 -56.42,-45.8 -94.42,-77.9 -158.14,-117.79 -14.11,-8.84 -29.63,-17.13 -41.29,-28.29 6.8,-25.18 40.13,-67.7 43.9,-90.23 -51.93,-38.52 -284.7,-129.09 -365.69,-131.23 -2.52,16.43 -18.13,84.44 -25.22,95.83z"/>
  <path class="fil1" d="M1685.77 3040.83c6.5,-12.59 4.7,-60.19 5.57,-78.38 0.96,-20.2 1.25,-17.65 23.08,-19.22 53.5,-3.84 146.67,-9.3 190.82,-16.57 -0.93,-17.55 -8.34,-65.07 -17.11,-75.27 -6.25,-3.94 -123.42,8.15 -144.57,9.21 -100.94,5.13 -195.03,-7.35 -291.86,-26.98l-123.63 -32.97c-7.83,14.04 -56.57,155.11 -58.63,172.04 77.88,20.3 102.75,32.41 194.84,51.14 25.1,5.11 186.43,28.72 217.26,19.33l4.21 -2.34z"/>
  <path class="fil1" d="M2471.21 821.67c5.46,10.86 37.89,36.61 49.39,47.9l57.53 63.84c38.44,46.44 29.03,30.54 76.61,96.23 45.87,63.33 113.68,179.41 137.96,255.8l169.43 -62.5c-0.08,-30.49 -75.03,-170.9 -90.72,-197.71 -18.15,-31.01 -36.59,-60.65 -56.56,-89.13 -12.3,-17.55 -52.79,-74.22 -64.4,-80.73 -18.08,9.29 -62.63,50.51 -78.86,56.44 -26.65,-21.97 -132.91,-132.37 -151.63,-145.97 -10.89,7.46 -43.21,45.44 -48.76,55.82z"/>
  <path class="fil1" d="M1056.04 527.5c4.34,20.47 73.07,123.54 85.97,155.44 9.73,-2.18 102.58,-48.82 139.45,-62.67 52.05,-19.53 98.38,-31.41 151.45,-48.5 2.35,-17.19 -28.57,-154.76 -35.75,-177.32 -42.8,-5.56 -311.51,100.87 -341.12,133.04z"/>
  <path class="fil1" d="M2189.39 2953.61c22.49,-0.13 135.31,-57.26 157.51,-70.01 98.25,-56.45 121.16,-71.45 205.98,-136.56 11.94,-9.16 19.73,-16.83 31.28,-26.31 9.03,-7.4 20.01,-19.03 28.48,-26.16l45.75 -42.19c13.13,-13.52 61.37,-61.96 64.25,-74.64 -18.03,-14.54 -36.84,-32.51 -57.09,-45.89 -13.9,8.29 -18.65,17.7 -27.42,27.52 -32.78,36.7 -57.85,54.84 -81.77,79 -60.8,61.38 -213.94,165.01 -285.87,196.38l-108.77 49.22c2.37,18.75 17.4,57.82 27.67,69.64z"/>
  <path class="fil1" d="M2530.13 1033.97l69.64 99.23c43.94,69.47 82.08,150.06 109.9,229.79 15.38,44.11 24.81,89.38 36.87,134.91 16.02,0.45 60.2,-5.59 73.69,-10.96 12.92,-32.69 -65.47,-231.39 -86.6,-275.48 -18.49,-38.58 -43.76,-86.19 -66.25,-118.7 -15.97,-23.09 -59.91,-90.1 -76.95,-106.78 -11.38,4.14 -53.83,38.96 -60.29,48z"/>
  <path class="fil1" d="M1372.37 723.82c2.02,23.37 16.23,52.18 21.6,75.1 62.57,-5.3 134.08,-53.75 343.56,-50.03 26.12,0.46 105.87,11.05 121.29,8.31 5.91,-17.89 10.7,-57.19 8.94,-75.96 -89.83,-27.86 -281.73,-9.9 -383.44,11.81 -38.37,8.19 -78.83,23.85 -111.95,30.76z"/>
  <path class="fil1" d="M1583.55 545.06c99.55,-0.92 127,-9.71 234.66,-0.55 21.9,1.86 52.7,7.48 74.1,7.1 14.63,-91.04 19.42,-76.53 -24.42,-81.57 -86.6,-9.96 -160.9,-14.81 -248.92,-7.45 -57.29,4.79 -43.3,-9.58 -35.43,82.47z"/>
  <path class="fil1" d="M533.49 2353.78l66.13 -36.75c-2.31,-11.47 -17.64,-39.08 -23.69,-51.8 -109.38,-229.81 -154.06,-464.05 -121.78,-722.05 5.27,-42.13 12.37,-91.41 23.07,-131.94 5.42,-20.58 9.43,-41.13 15.71,-62.87 5.31,-18.42 14.66,-45.11 17.11,-63.62l-73.26 -23.38c-21.21,33.19 -55.84,222.69 -62.55,271.13 -31.84,229.87 6.45,501.88 103.14,709.96 10.98,23.63 42.31,97.48 56.12,111.31z"/>
  <path class="fil1" d="M854.62 911.25c-18.14,-4.05 -14.02,-7.69 -40.16,12.54 -14.53,11.24 -6.91,10.21 -28.81,25.64 -0.52,0.36 -1.24,0.9 -1.75,1.27 -8.09,5.91 -12.3,9.18 -20.76,15.59 -16.88,12.82 -25.68,27.54 -49.86,43.95l-30.87 23.38 -11.26 -12.86c-4.4,-6.03 -5.37,-7.54 -11.51,-12.91l-28.49 -29.16c-14.8,-14.35 -10.85,-42.68 -8.18,-67.72 -30.74,16.59 -154.34,247.59 -170.06,309.91 13.33,8.08 149.02,59.24 161.35,60.43 17.39,-24.41 39.94,-68.48 54.9,-96.54 43.54,-81.66 63.91,-113.66 116.51,-186.71 11.3,-15.7 23.21,-27.52 33.99,-41.88 9.41,-12.55 29.19,-32.99 34.98,-44.93z"/>
  <path class="fil1" d="M472.36 1595.17c-8.5,49.84 -5.37,259.75 12.61,300.33 23.17,1.69 149.26,-22.34 177.93,-28.52 0.43,-17.48 -10.98,-102.91 -11.3,-156.7 -0.47,-81.76 7.91,-104.22 10.95,-164.87 -36.21,5.75 -114.98,40.95 -152.9,53.05l-27.13 1.68c-5.75,-1.25 -3.2,-1.03 -6.58,-2.53 -0.43,-0.19 -1.54,-0.3 -1.84,-1.17 -0.29,-0.87 -1.16,-0.85 -1.74,-1.27z"/>
  <path class="fil1" d="M622.96 910.97c-2.67,25.04 -6.62,53.38 8.18,67.72l28.49 29.16c6.14,5.37 7.11,6.89 11.51,12.91l11.26 12.86 30.87 -23.38c24.18,-16.41 32.98,-31.13 49.86,-43.95 8.46,-6.42 12.67,-9.68 20.76,-15.59 0.52,-0.38 1.24,-0.92 1.75,-1.27 21.9,-15.43 14.28,-14.41 28.81,-25.64 26.14,-20.23 22.02,-16.59 40.16,-12.54 10.38,-6.84 79.92,-89.02 84.35,-98.44 -4.36,-5.25 -8.96,-10.67 -13.41,-16.24 -14.99,-18.79 -86.93,-104.99 -100.83,-110.72 -49.47,44.9 -112.57,108.34 -155.88,161.98 -11.38,14.11 -40.93,46.42 -45.9,63.15z"/>
  <path class="fil1" d="M472.36 1595.17c0.58,0.42 1.45,0.4 1.74,1.27 0.3,0.87 1.41,0.98 1.84,1.17 3.38,1.49 0.83,1.28 6.58,2.53l27.13 -1.68c37.92,-12.1 116.69,-47.3 152.9,-53.05 7.23,-32 11.34,-65.47 19.01,-96.35 7.21,-28.99 21.93,-70.41 25.7,-96.91 -19.33,-4.91 -56.6,-21.18 -73.69,-21.36 -12.73,22.47 -43.18,178.33 -51.56,185.38 -13.03,4.86 -74.99,-9.59 -97.05,-9.21 -10.24,16.64 -10.18,65.38 -12.61,88.19z"/>
  <path class="fil1" d="M1467.34 2592.74c0.4,-15.68 2.33,6.55 3.51,-9.77l-0.35 -2.15c-0.93,-3.48 -8.04,-0.62 -1.56,-1.59 0.25,-11.5 3.99,-39.62 11.26,-49.72 5.26,-7.3 4.3,-7.57 14.18,-8.19 -6.85,-5.95 -2.29,-2.66 -13.4,-5.91l-39.43 -11.57c-16.45,-5.37 -33.49,-11.33 -49.76,-17.07 -16.7,-5.88 -34.21,-13.69 -49.96,-19.89 -13.88,-5.47 -33,-16 -47.13,-19.06 -8.45,7.76 -38.42,59.11 -40.2,73.1 50.73,12.49 171.97,64.76 212.82,71.82z"/>
  <path class="fil2" d="M311.56 2001.29l3.05 24.28 -58.65 7.38 -2.44 -19.39 -231.41 -67.34 -1.05 -8.37 206.84 -127.91 -2.36 -18.71 58.66 -7.38 3.05 24.27 -36.07 4.54 24.31 193.16 36.07 -4.54zm-61.47 -15.04l-18.59 -147.66 -159.37 96.94 177.95 50.72zm-250.04 -356.03c0.98,-36.91 14.14,-67.49 39.43,-91.69 25.28,-24.2 55.95,-35.85 91.96,-34.89 35.72,0.95 65.67,14.15 89.87,39.6 24.19,25.51 35.84,56.07 34.9,91.79 -0.96,36.11 -14.16,66.3 -39.56,90.49 -25.4,24.19 -55.68,35.85 -90.83,34.92 -23.43,-0.62 -44.96,-6.86 -64.71,-18.71 -19.68,-11.85 -34.95,-27.73 -45.75,-47.61 -10.8,-19.83 -15.91,-41.16 -15.3,-63.91zm23.81 -0.44c-0.48,17.99 3.77,35.22 12.73,51.66 8.97,16.38 21.26,29.34 36.93,38.87 15.72,9.48 33.32,14.48 52.9,15 28.93,0.77 53.65,-8.61 74.11,-28.18 20.52,-19.56 31.12,-43.53 31.87,-71.83 0.5,-18.96 -3.62,-36.58 -12.37,-52.9 -8.74,-16.37 -20.98,-29.27 -36.64,-38.69 -15.67,-9.42 -33.21,-14.42 -52.68,-14.94 -19.37,-0.52 -36.98,3.55 -52.84,12.14 -15.86,8.59 -28.71,20.99 -38.54,37.1 -9.82,16.11 -14.99,33.36 -15.48,51.77zm99.84 -437.63l10.06 22.08c-15.85,7.21 -28.93,17.26 -39.24,30.16 -10.3,12.85 -17.45,27.94 -21.47,45.32 -4.38,18.92 -3.86,37.53 1.5,55.79 5.36,18.28 14.72,33.57 28.01,46.01 13.28,12.43 29.57,20.91 48.72,25.34 29.02,6.72 55.54,2.38 79.5,-13 24.02,-15.37 39.53,-38.17 46.53,-68.46 7.7,-33.27 1.11,-64.09 -19.75,-92.52l18.58 -15.47c12.31,15.35 20.59,32.84 24.71,52.46 4.12,19.61 3.68,40.37 -1.38,62.22 -9.63,41.6 -31.07,71.22 -64.31,88.81 -28,14.74 -58.58,18.3 -91.63,10.65 -34.76,-8.04 -61.23,-27.01 -79.32,-56.88 -18.12,-29.95 -22.91,-63.25 -14.41,-100 5.13,-22.18 14.13,-41.2 26.97,-57.05 12.91,-15.85 28.55,-27.69 46.93,-35.47zm2.5 -58.29l-22.11 -8.75 49.14 -124.16 22.11 8.75 -20 50.55 204.72 81.02 -9.13 23.06 -204.72 -81.02 -20 50.55zm48.07 -180.98l13.65 -23.7 180.56 18.45 -110.51 -141.54 13.34 -23.17 143.75 189.68c13.52,17.72 14.83,36.11 3.84,55.2 -4.41,7.65 -10.13,13.97 -17.14,19.01 -7.07,5.01 -19.38,9.36 -36.98,13.15l-3.79 -22.69c16.55,-4.59 26.56,-8.24 30.01,-10.95 3.49,-2.77 6.29,-5.92 8.38,-9.56 3.19,-5.55 4.49,-11.2 3.89,-16.97 -0.65,-5.8 -5.44,-14.5 -14.47,-26.17l-214.53 -20.75zm140.02 -234.18l107.09 -136.23 191.78 150.77 -15.11 19.23 -173.62 -136.5 -76.86 97.76 173.62 136.5 -15.12 19.24 -191.78 -150.78zm171.41 -204.89l17.73 -16.86 70.5 74.08 90.08 -85.73 -70.51 -74.08 17.72 -16.87 168.19 176.71 -17.72 16.86 -81.29 -85.4 -90.07 85.73 81.28 85.4 -17.73 16.87 -168.19 -176.71zm292.77 -239.55l227.4 144.08 -22.08 14.14 -75.33 -46.98 -89.04 57.01 11.33 87.96 -22.89 14.66 -34.54 -267.57 5.15 -3.29zm25.03 44.76l12.54 97.41 70.53 -45.16 -83.07 -52.25zm262.36 -196.42l-44.37 20.07c-24.72,11.17 -41.03,19.78 -48.89,25.77 -11.91,8.99 -19.72,20.29 -23.47,33.98 -3.83,13.66 -2.43,27.76 4.12,42.26 5.46,12.07 13.1,21.42 22.96,27.96 9.83,6.62 21.11,9.85 33.86,9.74 12.7,-0.08 28.43,-4.34 47.15,-12.68l-33.28 139.59 27.3 -12.34 33.27 -139.59 12.8 -5.79 46.76 103.4 22.29 -10.08 -100.5 -222.29zm-12.5 31.75l34.16 75.54 -38.24 17.67c-14.91,6.74 -26.54,10.32 -34.94,10.69 -8.41,0.38 -16,-1.59 -22.83,-5.96 -6.77,-4.39 -11.91,-10.4 -15.39,-18.08 -3.36,-7.43 -4.43,-15.15 -3.1,-23.08 1.27,-7.91 4.63,-14.64 10.04,-20.26 5.36,-5.6 15.71,-11.84 30.98,-18.74l39.32 -17.78zm446.28 -100.04l-16.34 17.96c-12.87,-11.73 -27.26,-19.79 -43.18,-24.17 -15.87,-4.4 -32.55,-5.02 -50.11,-1.86 -19.12,3.44 -36.01,11.25 -50.69,23.38 -14.67,12.14 -25.04,26.77 -31.23,43.88 -6.19,17.11 -7.56,35.43 -4.07,54.76 5.27,29.32 19.7,51.98 43.29,67.94 23.6,16.01 50.66,21.27 81.26,15.77 33.61,-6.04 59.33,-24.26 77.23,-54.63l21.53 10.97c-9.25,17.37 -22.06,31.87 -38.45,43.39 -16.4,11.52 -35.66,19.3 -57.73,23.27 -42.03,7.56 -77.7,-0.47 -106.97,-24.08 -24.58,-19.92 -39.92,-46.62 -45.93,-80 -6.31,-35.11 0.68,-66.92 21,-95.32 20.38,-28.46 49.1,-46 86.22,-52.67 22.41,-4.03 43.43,-3.26 63.06,2.29 19.66,5.62 36.71,15.32 51.11,29.13zm77.68 -52.73l48.62 -1.29c27.85,-0.74 46.74,-0.06 56.54,2.12 14.01,3.08 25.58,9.8 34.7,20.27 9.16,10.4 13.94,23.7 14.37,39.83 0.43,16.25 -3.51,29.72 -11.9,40.54 -8.32,10.75 -20.03,18.15 -35.04,22.23 -11.02,2.95 -31.65,4.8 -61.94,5.61l-17.44 0.46 3.01 113.45 -24.45 0.65 -6.48 -243.87zm25.09 23.12l2.2 82.87 41.34 -0.58c16.69,-0.44 28.89,-2.3 36.56,-5.56 7.68,-3.26 13.66,-8.29 17.89,-15.21 4.24,-6.91 6.24,-14.61 6.02,-22.99 -0.22,-8.15 -2.62,-15.63 -7.22,-22.3 -4.59,-6.68 -10.61,-11.33 -17.93,-14.02 -7.32,-2.7 -19.19,-3.81 -35.72,-3.37l-43.14 1.15zm201.24 -23.63l139.24 10.59 -1.8 23.71 -114.85 -8.74 -5.8 76.23 113.83 8.66 -1.81 23.71 -113.83 -8.67 -7.3 95.88 113.83 8.66 -1.81 23.71 -138.23 -10.51 18.51 -243.25zm154.15 297.98l-23.84 -5.52 13.33 -57.59 19.04 4.4 143.09 -193.93 8.22 1.91 48.62 238.28 18.37 4.25 -13.33 57.59 -23.83 -5.51 8.19 -35.42 -189.68 -43.89 -8.2 35.43zm35.34 -52.5l144.99 33.54 -35.95 -183.04 -109.04 149.5zm410.28 -99.61l3.43 269.18 -23.9 -10.78 -1.76 -88.77 -96.38 -43.47 -67.5 57.51 -24.78 -11.18 205.32 -175 5.58 2.51zm-23.84 45.4l-74.77 63.69 76.34 34.44 -1.57 -98.13zm280.07 96.44l20.19 14.4 -53.14 74.5 132.76 -17.71 26.74 19.07 -159.24 20.8 25.04 183.14 -26.51 -18.91 -21.15 -155.03 -66.17 92.75 -20.19 -14.41 141.66 -198.6zm152.92 457.35l-17.59 -18.43 135.58 -129.43 -246.74 12.97 -3.8 -3.98 176.46 -168.45 16.89 17.7 -137.59 131.34 249.46 -14.15 3.79 3.98 -176.47 168.45zm236.59 -96.58l14.2 19.93 -83.29 59.35 72.16 101.27 83.29 -59.35 14.2 19.92 -198.67 141.57 -14.2 -19.92 96.02 -68.41 -72.16 -101.28 -96.02 68.42 -14.2 -19.93 198.67 -141.57zm210.47 335.67c15.22,33.64 16.71,66.9 4.51,99.7 -12.2,32.81 -34.72,56.66 -67.54,71.5 -32.56,14.72 -65.27,15.9 -98.14,3.55 -32.89,-12.41 -56.7,-34.83 -71.43,-67.39 -14.89,-32.92 -16.17,-65.84 -3.87,-98.68 12.3,-32.85 34.47,-56.54 66.51,-71.04 21.36,-9.66 43.45,-13.44 66.39,-11.38 22.88,2.08 43.54,9.71 61.94,22.9 18.37,13.13 32.26,30.1 41.64,50.84zm-21.23 10.78c-7.42,-16.41 -18.75,-30.05 -33.99,-40.94 -15.22,-10.83 -31.93,-17.13 -50.19,-18.88 -18.28,-1.68 -36.29,1.49 -54.15,9.57 -26.37,11.92 -44.52,31.13 -54.41,57.67 -9.93,26.56 -9.03,52.75 2.64,78.54 7.82,17.29 19.21,31.34 34.2,42.21 15.01,10.92 31.64,17.2 49.85,18.84 18.21,1.65 36.18,-1.5 53.92,-9.53 17.65,-7.98 31.73,-19.32 42.26,-33.97 10.53,-14.64 16.68,-31.4 18.51,-50.19 1.83,-18.78 -1.06,-36.56 -8.64,-53.33z"/>
  <path class="fil3" d="M233.43 2173.18c53.27,0 96.45,43.18 96.45,96.45 0,53.27 -43.18,96.45 -96.45,96.45 -53.27,0 -96.45,-43.18 -96.45,-96.45 0,-53.27 43.18,-96.45 96.45,-96.45zm0 32.16c35.51,0 64.29,28.78 64.29,64.29 0,35.51 -28.78,64.29 -64.29,64.29 -35.51,0 -64.29,-28.78 -64.29,-64.29 0,-35.51 28.78,-64.29 64.29,-64.29z"/>
  <path class="fil4" d="M2441.7 2207.37c27.28,-23.62 52.32,-47.14 74.72,-69.4 4.13,-4.11 -1.24,-15.74 13.48,-17 540.67,-46.13 616.55,321.17 895.78,274.36l-78.18 316.07c-98.15,0.42 -192.59,-16.34 -269.29,-47.5 -178.23,-72.41 -335.55,-340.25 -881.39,-245.37 93.59,-55.57 176.5,-127.2 244.9,-211.15zm183.64 150.27c35.12,6.85 71.14,15.6 105.38,26.82l130.11 -167.64c1.84,-2.37 -83.45,-26.01 -165.32,-35.36 -63.28,-4.06 -108.2,0.97 -108.2,0.97 -73.38,65.55 -129.95,105.92 -183.81,150.9 91.54,-7.2 166.6,7.35 221.84,24.32zm161.58 48.45c16.61,7.51 32.3,15.77 46.67,24.91 62.28,39.61 112.92,78.04 162.54,111.7l126.23 -178.2 -0.09 -0.06 -0.26 -0.16c-46.92,-28.54 -92.62,-58.45 -130.07,-82.53 -23.27,-14.49 -46.74,-28.91 -67.64,-41.42l-137.38 165.76zm256.73 167.25c51.61,31.18 119.41,58.96 174.03,70.62 54.63,11.66 90.11,8.57 90.11,8.57l51.34 -190.65c-41.28,7.8 -151.69,-41.18 -189.43,-64.88l-126.05 176.34z"/>
  <path class="fil3" d="M2553.59 2087.97c540.67,-46.13 616.55,321.17 895.78,274.36l-78.18 316.07c-98.15,0.42 -192.59,-16.34 -269.29,-47.5 -174.2,-70.78 -328.42,-328.24 -844.99,-251.25 40.21,-28.31 295.11,-291.54 296.69,-291.67zm95.44 236.67c35.12,6.85 71.14,15.6 105.38,26.82l130.11 -167.64c1.84,-2.37 -83.45,-26.01 -165.32,-35.36 -63.28,-4.06 -108.2,0.97 -108.2,0.97 -73.38,65.55 -129.95,105.92 -183.81,150.9 91.54,-7.2 166.6,7.35 221.84,24.32zm161.58 48.45c16.61,7.51 32.3,15.77 46.67,24.91 62.28,39.61 112.92,78.04 162.54,111.7l126.23 -178.2 -0.09 -0.06 -0.26 -0.16c-46.92,-28.54 -92.62,-58.45 -130.07,-82.53 -23.27,-14.49 -46.74,-28.91 -67.64,-41.42l-137.38 165.76zm256.73 167.25c51.61,31.18 119.41,58.96 174.03,70.62 54.63,11.66 90.11,8.57 90.11,8.57l51.34 -190.65c-41.28,7.8 -151.69,-41.18 -189.43,-64.88l-126.05 176.34z"/>
  <path class="fil0" d="M1306.74 1724.93c66.29,-14.03 115.8,-63.51 139.71,-120.59 30.44,-72.64 11.07,-158.09 -33.04,-203.39 -16.69,7.13 -6.64,-0.59 -21.85,14.27 -5.09,4.98 -7.29,9.19 -11.6,15.35 -62.25,88.78 -99.85,178 -73.22,294.35z"/>
  <path class="fil0" d="M1486.73 1341.22c39.91,115.04 260.54,146.86 341.9,6.48 -26.78,-28.5 -117.36,-46.37 -165.53,-46.37 -98.55,0 -102.46,18.2 -176.38,39.89z"/>
  <path class="fil0" d="M1904.28 1399.4c-47.84,43.93 -64.24,129.62 -36.2,203.76 18.81,49.76 80.15,120.65 141.78,119.65 22.98,-150.24 -32.87,-250.84 -105.58,-323.41z"/>
  <path class="fil0" d="M1335.46 1810.62c27.08,99.67 160.14,185.65 278.31,203.27 -0.94,-193.11 -177.99,-250.49 -278.31,-203.27z"/>
  <path class="fil0" d="M1701.49 2013.7c67.24,-9.02 130.61,-36.58 173.19,-68.57 31.58,-23.73 95.34,-89.51 104.72,-136.28 -160.03,-48 -276.4,52.55 -277.92,204.85z"/>
  <path class="fil4" d="M1832.57 1801.88c291.96,-77.13 388.04,354.96 113.29,426 -286.77,74.14 -393.03,-352.09 -113.29,-426zm-493.36 -0.45c278.16,-79.56 396.15,350.06 112.4,426.61 -273.54,73.79 -404.6,-343.04 -112.4,-426.61zm662.99 -474.82c128.3,-24.6 238.58,69.15 257.21,175.37 51.18,291.9 -380.48,368.02 -434.9,82.86 -25.19,-131.98 70.35,-237.65 177.69,-258.23zm-797.52 -0.58c133.37,-24.3 239.94,73.99 256.1,183.78 43.87,297.88 -394.85,348.48 -436.84,68.48 -20.35,-135.68 68.79,-231.86 180.74,-252.26zm385.51 -286.12c280.73,-66.55 387.93,344.65 112.36,426.54 -282.26,83.89 -405.36,-357.09 -112.36,-426.54zm-47.55 -115.66c-381.7,47.81 -712.41,406.24 -650.43,851.75 53.08,381.56 401.12,707 850.58,648.01 383.06,-50.28 710.22,-404.94 649.28,-852.79 -52.25,-383.99 -402.69,-702.93 -849.43,-646.96z"/>
  <path class="fil5" d="M1832.57 1801.88c291.96,-77.13 388.04,354.96 113.29,426 -286.77,74.14 -393.03,-352.09 -113.29,-426zm376.56 -629.24c-125.23,22.33 -242.92,64.29 -349.13,122.35 -11.91,74.38 -61.41,142.93 -157.45,171.47 -30.98,9.21 -60.04,12.08 -86.85,9.83 -92.22,91.08 -166.55,197.87 -217.85,315.58 234.67,-8.65 316.64,365.26 53.76,436.18 -49.12,13.25 -93.61,10.62 -131.91,-3 2.67,48.97 9.15,97 19.03,143.91 119.09,52.21 256.07,74.48 404.07,55.05 383.06,-50.28 710.22,-404.94 649.28,-852.79 -20.22,-148.59 -85.12,-287.42 -182.94,-398.57zm-206.94 153.97c128.3,-24.6 238.58,69.15 257.21,175.37 51.18,291.9 -380.48,368.02 -434.9,82.86 -25.19,-131.98 70.35,-237.65 177.69,-258.23z"/>
  <path class="fil3" d="M1872.5 1753.24c291.96,-77.13 388.04,354.96 113.29,426 -286.77,74.14 -393.03,-352.09 -113.29,-426zm-493.36 -0.45c278.16,-79.56 396.15,350.06 112.4,426.61 -273.54,73.79 -404.6,-343.04 -112.4,-426.61zm662.99 -474.82c128.3,-24.6 238.58,69.15 257.21,175.37 51.18,291.9 -380.48,368.02 -434.9,82.86 -25.19,-131.98 70.35,-237.65 177.69,-258.23zm-797.52 -0.58c133.37,-24.3 239.94,73.99 256.1,183.78 43.87,297.88 -394.85,348.48 -436.84,68.48 -20.35,-135.68 68.79,-231.86 180.74,-252.26zm385.51 -286.12c280.73,-66.55 387.93,344.65 112.36,426.54 -282.26,83.89 -405.36,-357.09 -112.36,-426.54zm-47.55 -115.66c-381.7,47.81 -712.41,406.24 -650.43,851.75 53.08,381.56 401.12,707 850.58,648.01 383.06,-50.28 710.22,-404.94 649.28,-852.79 -52.25,-383.99 -402.69,-702.93 -849.43,-646.96z"/>
 </g>
</svg>
